<?xml version="1.0" standalone="no"?>
<!DOCTYPE svg PUBLIC "-//W3C//DTD SVG 20010904//EN"
 "http://www.w3.org/TR/2001/REC-SVG-20010904/DTD/svg10.dtd">
<svg version="1.0" xmlns="http://www.w3.org/2000/svg"
 width="512.000000pt" height="512.000000pt" viewBox="0 0 512.000000 512.000000"
 preserveAspectRatio="xMidYMid meet">

<g transform="translate(0.000000,512.000000) scale(0.100000,-0.100000)"
fill="#000000" stroke="none">
<path d="M2345 4995 c-176 -30 -371 -111 -519 -217 -322 -229 -514 -574 -542
-973 l-7 -96 -56 -57 c-98 -99 -139 -215 -148 -413 -7 -159 11 -261 67 -376
47 -96 117 -166 187 -186 l46 -13 33 -94 c87 -243 220 -457 389 -625 190 -190
372 -289 605 -330 251 -44 505 15 745 174 107 70 278 247 363 374 83 125 158
273 206 407 l33 94 46 13 c70 20 140 90 187 186 56 115 74 217 67 376 -9 198
-50 314 -148 413 l-56 57 -7 96 c-13 188 -57 349 -139 509 -184 360 -535 617
-931 681 -111 18 -312 18 -421 0z m381 -210 c479 -77 846 -466 893 -945 5 -52
7 -127 4 -166 -8 -105 14 -138 109 -158 36 -8 83 -105 99 -206 22 -138 -6
-318 -60 -390 -16 -22 -25 -25 -72 -22 -40 2 -63 -3 -86 -17 -28 -17 -36 -34
-73 -153 -258 -825 -941 -1154 -1500 -722 -194 150 -366 417 -457 713 -23 76
-47 132 -61 146 -27 27 -73 38 -107 25 -38 -14 -52 -3 -84 64 -32 66 -51 158
-51 248 0 141 56 303 109 314 94 20 116 53 108 158 -21 289 96 596 310 809
121 122 262 209 420 262 162 53 333 67 499 40z"/>
<path d="M2462 4149 c-178 -35 -314 -191 -323 -369 -3 -77 0 -91 30 -121 23
-23 38 -29 71 -29 58 0 96 39 105 106 10 75 24 113 57 149 35 40 84 58 158 58
74 0 123 -18 158 -58 45 -50 55 -94 50 -204 -8 -153 -35 -198 -186 -304 -145
-101 -224 -222 -230 -352 -4 -65 -2 -74 22 -102 33 -39 73 -49 119 -29 39 16
67 59 67 101 0 72 56 148 158 217 191 128 263 265 264 498 1 120 -15 187 -63
261 -93 146 -271 215 -457 178z"/>
<path d="M2423 2658 c-44 -11 -73 -52 -73 -100 0 -113 165 -139 200 -32 28 83
-42 155 -127 132z"/>
<path d="M1490 1873 c-8 -3 -145 -50 -305 -105 -311 -107 -430 -158 -547 -233
-267 -172 -465 -428 -566 -732 -52 -155 -66 -248 -66 -451 l-1 -184 33 -29 32
-29 2490 0 2490 0 32 29 33 29 -1 184 c0 258 -37 424 -138 628 -142 286 -355
497 -641 635 -99 48 -667 253 -712 257 -50 4 -69 -7 -160 -92 -277 -262 -574
-390 -903 -390 -329 0 -626 128 -903 390 -53 49 -103 90 -111 90 -8 0 -20 2
-28 4 -7 3 -20 2 -28 -1z m41 -269 c88 -92 273 -219 419 -288 509 -240 1058
-172 1525 190 44 34 96 78 114 98 19 20 42 36 50 36 21 0 478 -160 570 -199
151 -64 309 -183 421 -318 168 -202 255 -426 275 -710 l7 -93 -2352 0 -2352 0
7 93 c20 284 107 508 275 710 104 125 265 250 397 309 78 34 566 206 589 207
11 1 36 -15 55 -35z"/>
</g>
</svg>
